<svg width="64" height="64" viewBox="0 0 64 64" fill="none" xmlns="http://www.w3.org/2000/svg">
  <rect width="64" height="64" rx="32" fill="rgb(255, 245, 240)"/>
  <path d="M32 16C26.477 16 22 20.477 22 26C22 31.523 26.477 36 32 36C37.523 36 42 31.523 42 26C42 20.477 37.523 16 32 16ZM32 32C28.686 32 26 29.314 26 26C26 22.686 28.686 20 32 20C35.314 20 38 22.686 38 26C38 29.314 35.314 32 32 32Z" fill="rgb(235, 101, 0)"/>
  <path d="M44 40H20C18.895 40 18 40.895 18 42V46C18 46.552 18.448 47 19 47H45C45.552 47 46 46.552 46 46V42C46 40.895 45.105 40 44 40Z" fill="rgb(235, 101, 0)"/>
  <path d="M24 36V40H40V36C37.790 38 34.970 39 32 39C29.030 39 26.210 38 24 36Z" fill="rgb(235, 101, 0)"/>
</svg> 